<svg width="48" height="48" viewBox="0 0 48 48" fill="none" xmlns="http://www.w3.org/2000/svg">
<path d="M31.7823 12.25C31.0508 12.2486 30.3227 12.3497 29.6192 12.5504L29.6192 12.5504L29.6134 12.5521C29.391 12.6185 29.1576 12.6399 28.9268 12.6152C28.696 12.5904 28.4725 12.5201 28.2691 12.4081C28.0658 12.2962 27.8868 12.1449 27.7425 11.9631C27.5982 11.7813 27.4915 11.5726 27.4286 11.3491C27.3658 11.1257 27.348 10.892 27.3763 10.6616C27.4046 10.4313 27.4785 10.2088 27.5936 10.0073C27.7087 9.8057 27.8627 9.62905 28.0468 9.48761C28.2308 9.34616 28.4411 9.24274 28.6655 9.18336L28.6655 9.18344L28.6745 9.18089C29.6847 8.89328 30.7302 8.74825 31.7805 8.75L31.7828 8.74999C34.143 8.74314 36.448 9.46385 38.3839 10.814C40.3198 12.1641 41.7926 14.0781 42.6017 16.2953C43.4108 18.5125 43.5169 20.9252 42.9056 23.2048C42.2943 25.4845 40.9953 27.5204 39.1854 29.0353L38.5751 29.5462L39.3002 29.8743C42.2735 31.2198 44.8321 33.3372 46.7099 36.0065L46.7121 36.0095C46.8456 36.1962 46.9406 36.4075 46.9916 36.6312C47.0427 36.8549 47.0487 37.0865 47.0095 37.3126C46.9702 37.5387 46.8864 37.7547 46.7629 37.9481C46.6395 38.1414 46.4788 38.3084 46.2902 38.4391L46.5751 38.85L46.2844 38.4432C45.9925 38.6519 45.6424 38.7635 45.2836 38.7625C45.003 38.7608 44.7268 38.6923 44.4779 38.5628C44.2288 38.4332 44.0142 38.2461 43.8517 38.0171M31.7823 12.25L31.7814 12.75V12.25C31.7817 12.25 31.782 12.25 31.7823 12.25ZM31.7823 12.25C33.9037 12.2502 35.9381 13.0931 37.4382 14.5931C38.9385 16.0934 39.7814 18.1283 39.7814 20.25C39.7814 22.3717 38.9385 24.4066 37.4382 25.9069C35.9379 27.4071 33.9031 28.25 31.7814 28.25C31.3172 28.25 30.8721 28.4344 30.5439 28.7626C30.2157 29.0907 30.0314 29.5359 30.0314 30C30.0314 30.4641 30.2157 30.9092 30.5439 31.2374C30.8721 31.5656 31.3172 31.75 31.7814 31.75H31.7819C34.1487 31.7526 36.4802 32.3232 38.5806 33.414C40.6807 34.5045 42.4883 36.0831 43.8517 38.0171M43.8517 38.0171C43.8517 38.017 43.8517 38.017 43.8517 38.017L43.4442 38.306L43.8525 38.0182C43.8523 38.0178 43.852 38.0174 43.8517 38.0171ZM23.9032 29.0361L23.2959 29.5471L24.019 29.8743C26.9923 31.2198 29.5508 33.3372 31.4287 36.0064L31.4358 36.0166L31.4435 36.0264C31.5893 36.2133 31.6957 36.4279 31.7562 36.6571C31.8166 36.8864 31.8298 37.1255 31.795 37.36C31.7602 37.5945 31.6782 37.8195 31.5538 38.0213C31.4294 38.2232 31.2653 38.3976 31.0714 38.5341C30.8776 38.6706 30.658 38.7663 30.4261 38.8153C30.1941 38.8644 29.9546 38.8658 29.7221 38.8195C29.4896 38.7732 29.2689 38.6801 29.0735 38.5459C28.878 38.4117 28.7119 38.2392 28.5851 38.0389L28.5787 38.0288L28.5718 38.0189C27.2111 36.0809 25.4037 34.4989 23.3026 33.4068C21.2014 32.3147 18.8682 31.7446 16.5001 31.7446C14.1321 31.7446 11.7988 32.3147 9.69765 33.4068C7.59647 34.4989 5.78912 36.0809 4.42839 38.0189L4.42728 38.0205C4.26732 38.2503 4.05404 38.4378 3.80573 38.567C3.55741 38.6962 3.28147 38.7633 3.00154 38.7625L2.99848 38.7625C2.63947 38.7637 2.28918 38.652 1.99711 38.4432L1.9947 38.4415C1.61613 38.1743 1.359 37.7678 1.27972 37.3112C1.20044 36.8547 1.30547 36.3853 1.57179 36.0061C3.44959 33.3371 6.00808 31.2197 8.98125 29.8743L9.70433 29.5471L9.09698 29.0361C7.29195 27.5177 5.99751 25.4809 5.38916 23.2019C4.78081 20.9229 4.88797 18.5119 5.69612 16.2959C6.50426 14.0799 7.9743 12.1659 9.90694 10.8136C11.8396 9.46125 14.1413 8.73592 16.5001 8.73592C18.8589 8.73592 21.1606 9.46125 23.0933 10.8136C25.0259 12.1659 26.496 14.0799 27.3041 16.2959C28.1122 18.5119 28.2194 20.9229 27.6111 23.2019C27.0027 25.4809 25.7083 27.5177 23.9032 29.0361ZM9.84835 15.8054C8.9693 17.121 8.50011 18.6677 8.50011 20.25C8.50011 22.3717 9.34296 24.4066 10.8433 25.9069C12.3435 27.4071 14.3784 28.25 16.5001 28.25C18.0824 28.25 19.6291 27.7808 20.9447 26.9018C22.2603 26.0227 23.2856 24.7733 23.8911 23.3115C24.4966 21.8497 24.6551 20.2411 24.3464 18.6893C24.0377 17.1374 23.2758 15.712 22.157 14.5931C21.0381 13.4743 19.6127 12.7124 18.0608 12.4037C16.509 12.095 14.9004 12.2535 13.4386 12.859C11.9768 13.4645 10.7274 14.4898 9.84835 15.8054Z" fill="#4CAF4F" stroke="#4CAF4F"/>
</svg>
