<svg width="87" height="149" viewBox="0 0 87 149" fill="none" xmlns="http://www.w3.org/2000/svg">
<path d="M19.4405 110.606C3.47252 99.4542 -0.144819 78.7527 0.485632 60.1388C0.588985 57.0383 0.247934 53.7516 1.72588 51.0335C3.20382 48.3153 6.65579 46.4446 9.43598 47.7469C11.7407 48.8321 12.7433 51.5192 14.0352 53.7413C15.759 56.7009 18.2851 59.1124 21.3215 60.697C23.2956 61.7305 25.745 62.3506 27.6984 61.2757C30.3856 59.7978 30.6956 56.1081 30.6749 53.0075C30.6749 47.2404 30.6405 41.4802 30.5716 35.7269C30.3859 32.6376 30.7 29.5385 31.5018 26.5492C32.463 23.614 34.6023 20.8958 37.5272 20.069C40.4521 19.2422 44.1004 20.9475 44.7619 23.9654C44.8758 25.2436 44.9068 26.5279 44.8549 27.8101C44.9376 29.102 45.5371 30.518 46.7463 30.9107C47.9555 31.3034 49.2164 30.4043 50.1466 29.4948C53.3299 26.3942 55.5002 22.3531 57.5156 18.3637C59.531 14.3743 61.505 10.2712 64.3989 6.87087C67.2928 3.47057 71.2925 0.773069 75.7677 0.514687C80.2429 0.256305 84.9041 3.00549 86.0203 7.3463C87.1365 11.6871 84.6044 16.1209 81.8862 19.6453C77.7845 24.8767 72.9494 29.4889 67.5305 33.3395C66.4727 33.917 65.6285 34.8192 65.1224 35.913C64.4506 37.98 66.4039 40.0471 68.44 40.6982C70.7448 41.463 73.2459 41.2253 75.6747 41.5147C78.1035 41.8041 80.6873 42.8583 81.6071 45.132C82.868 48.2946 80.2222 51.6019 77.6281 53.7723C72.4191 58.1131 66.5043 61.5285 60.1408 63.8699C57.867 64.6967 55.4796 65.4305 53.6399 67.0221C51.8002 68.6138 50.7047 71.3939 51.8106 73.5747C52.9164 75.7554 55.7586 76.4479 58.1461 76.0035C60.5335 75.5591 62.6523 74.2775 64.926 73.4197C69.1738 71.8177 74.6515 72.1071 77.3283 75.7761C78.1576 77.04 78.6825 78.4789 78.8619 79.9799C79.0412 81.4809 78.87 83.003 78.3619 84.4267C77.3274 87.26 75.7354 89.8571 73.68 92.0645C66.9108 100.152 58.1156 106.297 48.1932 109.872C38.3437 113.283 29.2177 114.213 19.4302 110.627" fill="#4CAF4F"/>
<path d="M81.4728 3.0675C81.4728 3.0675 81.3798 3.17086 81.1731 3.35689L80.2533 4.17337C79.4471 4.89684 78.2586 5.95104 76.76 7.3463C72.511 11.2914 68.5655 15.5513 64.9571 20.0897C62.6523 22.9526 60.2649 26.1978 57.7224 29.7221C55.1799 33.2465 52.5548 37.0499 49.9503 41.091C47.1736 45.3524 44.6308 49.7617 42.3332 54.2994C41.1343 56.6662 40.0801 59.1363 38.9949 61.6581L35.791 69.3579C31.5677 79.0565 27.8895 88.9835 24.7736 99.0924C22.2637 107.363 20.5336 115.851 19.6059 124.445C19.0049 130.244 18.908 136.085 19.3166 141.901C19.4819 143.968 19.637 145.549 19.7817 146.624C19.8437 147.141 19.885 147.554 19.9263 147.854V148.278C19.8819 148.144 19.8507 148.005 19.8333 147.865C19.7816 147.565 19.7196 147.162 19.6369 146.645C19.4509 145.611 19.2546 143.978 19.0685 141.911C18.5699 136.084 18.6045 130.224 19.1719 124.404C20.0419 115.773 21.7343 107.246 24.2258 98.9374C27.3156 88.8001 30.9837 78.8481 35.2122 69.1305L38.4988 61.4617C39.584 58.9503 40.6485 56.4595 41.8578 54.0824C44.1713 49.5309 46.7349 45.111 49.5369 40.8429C52.1827 36.7088 54.8492 32.9674 57.3607 29.4741C59.8721 25.9808 62.3009 22.7148 64.5953 19.8623C68.2405 15.3359 72.239 11.1058 76.5533 7.21194C78.0829 5.83735 79.3024 4.80382 80.1292 4.11136L81.0904 3.33622C81.2082 3.23363 81.3364 3.14358 81.4728 3.0675Z" fill="#263238"/>
<path d="M41.992 54.0617C41.8462 53.6359 41.7457 53.196 41.6923 52.7491C41.5269 51.8913 41.3409 50.6821 41.1238 49.1111C40.6794 46.0105 40.2247 41.7627 39.7389 37.0602C39.2532 32.3576 38.7054 28.0995 38.2506 25.03C38.0129 23.5003 37.8062 22.2704 37.6615 21.4126C37.5486 20.9736 37.4896 20.5224 37.4858 20.069C37.6638 20.4831 37.7922 20.9167 37.8682 21.3609C38.0956 22.2084 38.354 23.428 38.6434 24.968C39.2325 28.0685 39.8112 32.2853 40.297 36.9982C40.7828 41.7111 41.1962 45.8452 41.5166 49.0595C41.6716 50.5064 41.806 51.7363 41.9093 52.7181C41.9896 53.1612 42.0174 53.6122 41.992 54.0617Z" fill="#263238"/>
<path d="M81.7621 46.641C81.2591 46.7505 80.747 46.8128 80.2325 46.827C79.199 46.92 77.7314 47.0441 75.9124 47.2508C72.2743 47.6435 67.2721 48.367 61.784 49.4005C56.296 50.434 51.3661 51.6019 47.8211 52.5011C46.0538 52.9558 44.6275 53.3692 43.687 53.6483C43.1848 53.8267 42.6652 53.9514 42.1367 54.0203C42.6143 53.7802 43.1124 53.5831 43.625 53.4313C44.5965 53.0902 46.0021 52.6147 47.7591 52.1083C51.2834 51.0748 56.2133 49.8449 61.722 48.7907C66.3884 47.8984 71.097 47.243 75.8297 46.827C77.659 46.672 79.137 46.61 80.1705 46.5893C80.7014 46.5532 81.2346 46.5705 81.7621 46.641Z" fill="#263238"/>
<path d="M24.7321 98.2139C24.6219 98.0643 24.5316 97.901 24.4634 97.7282L23.7813 96.2916C23.1922 95.041 22.3963 93.191 21.4455 90.9276C19.5231 86.3801 17.0737 80.0135 14.4692 72.9442C11.8647 65.8749 9.46693 59.5084 7.64792 54.9092C6.75909 52.6768 6.02531 50.8474 5.47754 49.4832L4.89873 48.0052C4.81851 47.8348 4.76287 47.6538 4.7334 47.4678C4.84359 47.6174 4.93389 47.7807 5.00209 47.9535L5.68423 49.3901C6.263 50.6407 7.06916 52.4907 8.02001 54.7542C9.94236 59.3017 12.3918 65.6682 14.9963 72.7375C17.6008 79.8068 19.9986 86.1733 21.8176 90.7725C22.7064 93.0049 23.4402 94.8343 23.9777 96.1985C24.2154 96.7876 24.4117 97.2321 24.5668 97.6765C24.647 97.8469 24.7026 98.0279 24.7321 98.2139Z" fill="#263238"/>
<path d="M77.5245 81.1918C77.359 81.2868 77.1818 81.3597 76.9974 81.4088L75.4678 81.9256L69.8144 83.7549C65.0396 85.3052 58.4457 87.517 51.211 89.9561C43.9763 92.3952 37.3513 94.5656 32.5455 96.0125C30.1477 96.7463 28.1943 97.3045 26.8404 97.6765L25.2798 98.0796C25.0983 98.1372 24.9112 98.1754 24.7217 98.1933C24.8872 98.0983 25.0644 98.0253 25.2488 97.9762L26.7784 97.4595L32.4318 95.6301C37.2067 94.0798 43.8006 91.8681 51.0353 89.429C58.2699 86.9899 64.8845 84.8194 69.6904 83.3725C72.0985 82.6387 74.0415 82.0806 75.4058 81.7085L76.9664 81.3054C77.1479 81.2478 77.335 81.2097 77.5245 81.1918Z" fill="#263238"/>
</svg>
