<svg width="40" height="40" viewBox="0 0 40 40" fill="none" xmlns="http://www.w3.org/2000/svg">
<g clip-path="url(#clip0_222_7414)">
<path d="M32.3831 21.6333C32.4497 21.0999 32.4997 20.5666 32.4997 19.9999C32.4997 19.4333 32.4497 18.8999 32.3831 18.3666L35.8997 15.6166C36.2164 15.3666 36.2997 14.9166 36.0997 14.5499L32.7664 8.78325C32.6164 8.51659 32.3331 8.36659 32.0331 8.36659C31.9331 8.36659 31.8331 8.38325 31.7497 8.41659L27.5997 10.0833C26.7331 9.41659 25.7997 8.86659 24.7831 8.44992L24.1497 4.03325C24.0997 3.63325 23.7497 3.33325 23.3331 3.33325H16.6664C16.2497 3.33325 15.8997 3.63325 15.8497 4.03325L15.2164 8.44992C14.1997 8.86659 13.2664 9.43325 12.3997 10.0833L8.24973 8.41659C8.14973 8.38325 8.04973 8.36659 7.94973 8.36659C7.6664 8.36659 7.38307 8.51659 7.23307 8.78325L3.89973 14.5499C3.68307 14.9166 3.78307 15.3666 4.09973 15.6166L7.6164 18.3666C7.54973 18.8999 7.49973 19.4499 7.49973 19.9999C7.49973 20.5499 7.54973 21.0999 7.6164 21.6333L4.09973 24.3833C3.78307 24.6333 3.69973 25.0833 3.89973 25.4499L7.23307 31.2166C7.38307 31.4833 7.6664 31.6333 7.9664 31.6333C8.0664 31.6333 8.1664 31.6166 8.24973 31.5833L12.3997 29.9166C13.2664 30.5833 14.1997 31.1333 15.2164 31.5499L15.8497 35.9666C15.8997 36.3666 16.2497 36.6666 16.6664 36.6666H23.3331C23.7497 36.6666 24.0997 36.3666 24.1497 35.9666L24.7831 31.5499C25.7997 31.1333 26.7331 30.5666 27.5997 29.9166L31.7497 31.5833C31.8497 31.6166 31.9497 31.6333 32.0497 31.6333C32.3331 31.6333 32.6164 31.4833 32.7664 31.2166L36.0997 25.4499C36.2997 25.0833 36.2164 24.6333 35.8997 24.3833L32.3831 21.6333V21.6333ZM29.0831 18.7833C29.1497 19.2999 29.1664 19.6499 29.1664 19.9999C29.1664 20.3499 29.1331 20.7166 29.0831 21.2166L28.8497 23.0999L30.3331 24.2666L32.1331 25.6666L30.9664 27.6833L28.8497 26.8333L27.1164 26.1333L25.6164 27.2666C24.8997 27.7999 24.2164 28.1999 23.5331 28.4833L21.7664 29.1999L21.4997 31.0833L21.1664 33.3333H18.8331L18.5164 31.0833L18.2497 29.1999L16.4831 28.4833C15.7664 28.1833 15.0997 27.7999 14.4331 27.2999L12.9164 26.1333L11.1497 26.8499L9.03307 27.6999L7.8664 25.6833L9.6664 24.2833L11.1497 23.1166L10.9164 21.2333C10.8664 20.7166 10.8331 20.3333 10.8331 19.9999C10.8331 19.6666 10.8664 19.2833 10.9164 18.7833L11.1497 16.8999L9.6664 15.7333L7.8664 14.3333L9.03307 12.3166L11.1497 13.1666L12.8831 13.8666L14.3831 12.7333C15.0997 12.1999 15.7831 11.7999 16.4664 11.5166L18.2331 10.7999L18.4997 8.91658L18.8331 6.66659H21.1497L21.4664 8.91658L21.7331 10.7999L23.4997 11.5166C24.2164 11.8166 24.8831 12.1999 25.5497 12.6999L27.0664 13.8666L28.8331 13.1499L30.9497 12.2999L32.1164 14.3166L30.3331 15.7333L28.8497 16.8999L29.0831 18.7833ZM19.9997 13.3333C16.3164 13.3333 13.3331 16.3166 13.3331 19.9999C13.3331 23.6833 16.3164 26.6666 19.9997 26.6666C23.6831 26.6666 26.6664 23.6833 26.6664 19.9999C26.6664 16.3166 23.6831 13.3333 19.9997 13.3333ZM19.9997 23.3333C18.1664 23.3333 16.6664 21.8333 16.6664 19.9999C16.6664 18.1666 18.1664 16.6666 19.9997 16.6666C21.8331 16.6666 23.3331 18.1666 23.3331 19.9999C23.3331 21.8333 21.8331 23.3333 19.9997 23.3333Z" fill="#1C1C1C"/>
</g>
<defs>
<clipPath id="clip0_222_7414">
<rect width="40" height="40" fill="white"/>
</clipPath>
</defs>
</svg>
