<svg width="55" height="61" viewBox="0 0 55 61" fill="none" xmlns="http://www.w3.org/2000/svg">
<path d="M27.5656 0.143687H27.0799L25.6743 0.247046C24.9136 0.292746 24.1572 0.392919 23.4108 0.546777C22.9274 0.614656 22.4479 0.707789 21.9742 0.825818L20.3723 1.27024C17.6456 2.10676 15.0731 3.38082 12.7552 5.04261C9.69271 7.26549 7.13551 10.1115 5.25177 13.3935C4.14459 15.2854 3.26349 17.3008 2.62661 19.3983C1.9574 21.678 1.57209 24.0315 1.47941 26.4056C1.41781 27.6527 1.43852 28.9026 1.54142 30.147C1.54142 30.7774 1.71711 31.4079 1.7998 32.0487C1.86934 32.6946 1.9903 33.334 2.16153 33.9607C3.0909 38.108 4.97662 41.9807 7.66826 45.2699C10.3599 48.5591 13.783 51.1737 17.6644 52.9052C20.4737 54.1174 23.4847 54.7939 26.5424 54.8999C29.7006 55.0736 32.8619 54.6205 35.8442 53.5667L36.7537 53.2256H36.8777L36.981 53.2876L50.0138 59.9022L49.6314 60.2329C48.2361 55.9128 46.8926 51.727 45.5903 47.7066V47.5516L45.704 47.4379C48.8656 44.2535 51.2125 40.3537 52.5459 36.0691C53.7536 32.152 54.1061 28.0212 53.5795 23.9561C53.111 20.3435 51.9495 16.8552 50.1585 13.6829C48.6147 10.9578 46.6232 8.51208 44.2674 6.4482C42.3238 4.81463 40.1726 3.44538 37.8699 2.37611C36.1275 1.62461 34.3128 1.05321 32.4542 0.670795L30.3871 0.32973L28.8885 0.216041L27.979 0.154032H27.669C27.772 0.142598 27.876 0.142598 27.979 0.154032H28.8989L30.3975 0.216041L32.4645 0.515757C34.3463 0.870174 36.1857 1.42097 37.9526 2.15908C40.2949 3.21564 42.4848 4.58174 44.4638 6.22083C46.8628 8.27554 48.8966 10.7217 50.4789 13.4555C52.3207 16.6619 53.5179 20.1974 54.0032 23.8631C54.5736 27.991 54.2457 32.1933 53.042 36.1828C51.6999 40.5565 49.3167 44.5392 46.0967 47.7893L46.1588 47.5206C47.461 51.541 48.8149 55.7268 50.2205 60.0366L50.4169 60.667L49.8278 60.3673L36.795 53.763H37.0224L36.0922 54.1041C33.0525 55.1737 29.8327 55.6372 26.6148 55.4684C23.4911 55.3494 20.4171 54.6484 17.5507 53.4013C12.0831 51.0597 7.53403 46.9898 4.60065 41.8155C3.25078 39.4258 2.26496 36.848 1.67577 34.1674C1.51442 33.5245 1.39361 32.8721 1.31404 32.214C1.23136 31.5629 1.097 30.9221 1.06599 30.2813C0.786278 26.6039 1.17496 22.9062 2.21321 19.3673C2.86595 17.2409 3.77159 15.2006 4.91071 13.2901C6.83939 9.97834 9.44986 7.11423 12.5691 4.88759C14.9252 3.22154 17.541 1.9573 20.3103 1.14621L21.9329 0.732804C22.4105 0.622026 22.8934 0.535786 23.3798 0.474423C24.1339 0.33479 24.8974 0.25187 25.6639 0.226371L27.0799 0.174707C27.2408 0.153023 27.4032 0.142648 27.5656 0.143687Z" fill="#4CAF4F"/>
<path d="M33.4569 24.2455H31.5449L27.4108 18.4371V14.6234C27.4108 14.6234 24.4549 14.4374 24.8063 19.4293C25.1577 24.4212 24.8063 23.15 24.8063 23.15C24.8063 23.15 18.5328 23.15 18.016 23.7184C17.4993 24.2869 17.4683 30.3433 17.3959 33.723C17.3563 34.5377 17.5901 35.3422 18.0601 36.0089C18.5301 36.6755 19.2094 37.1659 19.9901 37.4023C20.2089 37.4629 20.4348 37.4942 20.6619 37.4953C22.2328 37.4953 30.222 36.2241 30.222 36.2241H33.5189L33.4569 24.2455Z" fill="#4CAF4F"/>
<path d="M38.9241 23.2223L37.7459 36.2861H34.48V23.491L38.9241 23.2223Z" fill="#4CAF4F"/>
</svg>
