<svg width="108" height="19" viewBox="0 0 108 19" fill="none" xmlns="http://www.w3.org/2000/svg">
<path d="M104.786 18.607C104.994 18.5813 105.201 18.5434 105.406 18.4933C105.694 18.4014 105.96 18.2487 106.185 18.0455C106.409 17.8422 106.588 17.5932 106.708 17.3151C106.871 16.8978 106.934 16.4485 106.894 16.0025C106.894 15.5064 106.894 14.969 106.894 14.3695C106.894 13.1706 106.894 11.8064 106.894 10.2354V3.67254C106.943 3.19739 106.838 2.71899 106.594 2.30827C106.339 1.88706 105.938 1.57437 105.468 1.42979C104.953 1.33792 104.429 1.31015 103.907 1.3471H89.0346L2.89017 1.02671C2.42681 1.02781 1.97961 1.19712 1.63172 1.50318C1.28383 1.80925 1.05892 2.23124 0.998811 2.69069C0.998811 3.67254 0.998811 4.75774 0.998811 5.79127C0.998811 7.85832 0.998811 9.92538 0.998811 11.9924C0.998811 13.026 0.998811 14.0595 0.998811 15.093C0.960311 15.576 0.981134 16.062 1.06082 16.5399C1.18986 16.959 1.45546 17.3229 1.81529 17.5735C2.19707 17.8157 2.64553 17.9315 3.09687 17.9042H4.53347H7.52036L30.3923 18.0179L69.1185 18.2556L95.2254 18.4623L102.326 18.545H95.2254H69.1185L30.3716 18.5036L7.49969 18.421H3.00386C2.44484 18.4541 1.89011 18.3054 1.42256 17.9972C0.952279 17.6714 0.609059 17.1931 0.451044 16.6433C0.35841 16.1181 0.33064 15.5836 0.36836 15.0517C0.36836 14.0181 0.36836 12.9846 0.36836 11.9511C0.36836 9.88403 0.36836 7.81697 0.36836 5.74992C0.36836 4.71639 0.36836 3.68287 0.36836 2.64934C0.443774 2.05836 0.731987 1.51513 1.17905 1.12133C1.62611 0.727538 2.20138 0.510184 2.79715 0.509949L88.9416 0.985362L103.814 1.09905C104.368 1.06508 104.924 1.10329 105.468 1.21274C106.005 1.38819 106.458 1.75641 106.739 2.24627C107.006 2.70149 107.122 3.2299 107.07 3.75522C107.07 4.24098 107.07 4.7164 107.07 5.19182C107.07 7.0625 107.07 8.77816 107.07 10.3595C107.07 11.9407 107.07 13.274 107.07 14.4936C107.07 15.0827 107.07 15.6304 107.07 16.1369C107.107 16.5991 107.033 17.0635 106.853 17.4908C106.718 17.776 106.524 18.0288 106.284 18.2322C106.043 18.4355 105.761 18.5845 105.457 18.669C105.231 18.6877 105.004 18.6667 104.786 18.607Z" fill="#E0E0E0"/>
</svg>
