<svg width="5" height="5" viewBox="0 0 5 5" fill="none" xmlns="http://www.w3.org/2000/svg">
<path d="M4.98411 2.82681C4.9556 3.24316 4.80536 3.64194 4.55207 3.9736C4.29877 4.30526 3.95361 4.55516 3.55945 4.69226C3.16529 4.82935 2.73954 4.8476 2.3351 4.74471C1.93066 4.64181 1.56536 4.42231 1.28464 4.11351C1.00392 3.80472 0.820138 3.42024 0.75614 3.00785C0.692141 2.59547 0.750768 2.17339 0.924693 1.79404C1.09862 1.41469 1.38018 1.09482 1.73441 0.874188C2.08863 0.653554 2.49989 0.541892 2.91706 0.553072C3.49004 0.587761 4.02681 0.844867 4.41294 1.26961C4.79907 1.69436 5.00402 2.25313 4.98411 2.82681Z" fill="#4CAF4F"/>
</svg>
