<svg width="107" height="20" viewBox="0 0 107 20" fill="none" xmlns="http://www.w3.org/2000/svg">
<path d="M104.579 19.0227C104.788 18.998 104.995 18.96 105.199 18.909C105.486 18.8176 105.751 18.6663 105.975 18.4649C106.2 18.2636 106.379 18.0169 106.501 17.7411C106.663 17.3237 106.727 16.8745 106.687 16.4285C106.687 15.9221 106.687 15.395 106.687 14.7852C106.687 13.5967 106.687 12.2221 106.687 10.6511V4.08821C106.736 3.61307 106.631 3.13466 106.387 2.72395C106.126 2.31042 105.727 2.00281 105.261 1.85579C104.747 1.76026 104.222 1.72902 103.7 1.76278H88.8278L2.68338 1.44239C2.22002 1.44348 1.77281 1.61281 1.42492 1.91887C1.07704 2.22494 0.852139 2.6469 0.792028 3.10635C0.792028 4.13988 0.792028 5.1734 0.792028 6.20693C0.792028 8.27398 0.792028 10.341 0.792028 12.4081C0.792028 13.4416 0.792028 14.4751 0.792028 15.5087C0.753541 15.9883 0.774366 16.4708 0.854037 16.9453C0.977811 17.367 1.24457 17.7324 1.60851 17.9788C1.9879 18.2265 2.43819 18.3427 2.89009 18.3095H7.38592L30.2579 18.4336L68.9841 18.6713L95.091 18.878L102.191 18.9606H95.091H68.9841L30.2579 18.847L7.38592 18.754H2.89009C2.33061 18.7917 1.77443 18.6426 1.30879 18.3302C0.83851 18.0044 0.495289 17.5261 0.337274 16.9763C0.244641 16.4511 0.21687 15.9166 0.25459 15.3846C0.25459 14.3511 0.25459 13.3176 0.25459 12.2841C0.25459 10.217 0.25459 8.14996 0.25459 6.08291C0.25459 5.04938 0.25459 4.01587 0.25459 2.93067C0.327657 2.34056 0.613768 1.79747 1.05913 1.4035C1.50449 1.00952 2.07843 0.791793 2.67304 0.79126L88.8175 1.26667L103.69 1.38038C104.244 1.3464 104.8 1.38461 105.344 1.49405C105.881 1.6695 106.333 2.03772 106.615 2.52758C106.882 2.9828 106.998 3.51119 106.946 4.03652C106.946 4.52227 106.946 5.00805 106.946 5.47313C106.946 7.34382 106.946 9.05947 106.946 10.6408C106.946 12.2221 106.946 13.5553 106.946 14.7749C106.946 15.364 106.946 15.9117 106.946 16.4182C106.985 16.8804 106.911 17.3454 106.728 17.7721C106.594 18.0573 106.4 18.3102 106.159 18.5135C105.919 18.7168 105.637 18.8658 105.333 18.9503C105.091 19.0333 104.832 19.058 104.579 19.0227Z" fill="#E0E0E0"/>
</svg>
