<svg width="6" height="5" viewBox="0 0 6 5" fill="none" xmlns="http://www.w3.org/2000/svg">
<path d="M5.05614 2.68208C5.02564 3.09781 4.87376 3.49543 4.61936 3.82565C4.36496 4.15587 4.01923 4.40413 3.62503 4.53967C3.23083 4.6752 2.80551 4.69204 2.40183 4.58808C1.99815 4.48413 1.63388 4.26398 1.35417 3.9549C1.07447 3.64583 0.891639 3.26145 0.828374 2.84943C0.76511 2.43741 0.824193 2.01586 0.998284 1.6371C1.17238 1.25835 1.45382 0.939038 1.80771 0.718762C2.16161 0.498486 2.57238 0.386938 2.98909 0.397962C3.56392 0.432663 4.10226 0.691236 4.48868 1.11823C4.87509 1.54522 5.07882 2.10664 5.05614 2.68208Z" fill="#4CAF4F"/>
</svg>
