<svg width="5" height="5" viewBox="0 0 5 5" fill="none" xmlns="http://www.w3.org/2000/svg">
<path d="M4.40065 2.79578C4.37244 3.20997 4.22374 3.6069 3.97287 3.93768C3.72199 4.26846 3.37988 4.51867 2.98864 4.65753C2.5974 4.79639 2.17409 4.81784 1.77082 4.71923C1.36755 4.62062 1.0019 4.40624 0.718874 4.10251C0.435852 3.79878 0.247819 3.41894 0.177887 3.00972C0.107956 2.6005 0.15918 2.17976 0.325277 1.79928C0.491375 1.4188 0.76508 1.09516 1.11272 0.868232C1.46037 0.6413 1.86678 0.520985 2.28194 0.522041C2.86407 0.543592 3.41393 0.794985 3.81106 1.22117C4.20819 1.64736 4.4202 2.21357 4.40065 2.79578Z" fill="#4CAF4F"/>
</svg>
