<svg width="121" height="31" viewBox="0 0 121 31" fill="none" xmlns="http://www.w3.org/2000/svg">
<path d="M7.484 3.344L5.412 15.076C5.33733 15.5613 5.3 15.8973 5.3 16.084C5.3 16.9427 5.54267 17.6053 6.028 18.072C6.51333 18.52 7.232 18.744 8.184 18.744C9.304 18.744 10.2187 18.4267 10.928 17.792C11.6373 17.1573 12.0947 16.252 12.3 15.076L14.372 3.344H19.16L17.088 15.076C16.7707 16.8493 16.136 18.352 15.184 19.584C14.2507 20.7973 13.1027 21.7027 11.74 22.3C10.396 22.8973 8.93067 23.196 7.344 23.196C5.29067 23.196 3.62933 22.664 2.36 21.6C1.10933 20.536 0.484 18.996 0.484 16.98C0.484 16.3827 0.54 15.748 0.652 15.076L2.696 3.344H7.484ZM22.2982 15.16C22.5782 13.5547 23.1289 12.1453 23.9502 10.932C24.7715 9.71867 25.7609 8.78533 26.9182 8.132C28.0755 7.47867 29.2982 7.152 30.5862 7.152C31.6129 7.152 32.5089 7.36667 33.2742 7.796C34.0582 8.22533 34.6275 8.804 34.9822 9.532L36.2702 2.28H41.0582L37.3902 23H32.6022L32.9942 20.76C32.3969 21.5067 31.6502 22.104 30.7542 22.552C29.8582 23 28.8595 23.224 27.7582 23.224C26.6569 23.224 25.6769 22.972 24.8182 22.468C23.9782 21.964 23.3155 21.2453 22.8302 20.312C22.3635 19.3787 22.1302 18.2867 22.1302 17.036C22.1302 16.4573 22.1862 15.832 22.2982 15.16ZM34.0022 15.188C34.0582 14.852 34.0862 14.544 34.0862 14.264C34.0862 13.3493 33.8155 12.6307 33.2742 12.108C32.7515 11.5853 32.0795 11.324 31.2582 11.324C30.3062 11.324 29.4382 11.6693 28.6542 12.36C27.8702 13.032 27.3755 13.9653 27.1702 15.16C27.1142 15.496 27.0862 15.804 27.0862 16.084C27.0862 16.9987 27.3475 17.7267 27.8702 18.268C28.4115 18.7907 29.0835 19.052 29.8862 19.052C30.8382 19.052 31.7062 18.7067 32.4902 18.016C33.2742 17.3253 33.7782 16.3827 34.0022 15.188ZM44.1021 15.16C44.3821 13.5547 44.9328 12.1453 45.7541 10.932C46.5754 9.71867 47.5648 8.78533 48.7221 8.132C49.8794 7.47867 51.1021 7.152 52.3901 7.152C53.4914 7.152 54.4154 7.376 55.1621 7.824C55.9088 8.272 56.4501 8.86 56.7861 9.588L57.1781 7.376H61.9661L59.1941 23H54.4061L54.8261 20.788C54.2288 21.516 53.4728 22.104 52.5581 22.552C51.6434 23 50.6354 23.224 49.5341 23.224C48.4328 23.224 47.4528 22.972 46.5941 22.468C45.7541 21.964 45.1008 21.2547 44.6341 20.34C44.1674 19.4067 43.9341 18.3147 43.9341 17.064C43.9341 16.4667 43.9901 15.832 44.1021 15.16ZM55.8061 15.188C55.8621 14.852 55.8901 14.544 55.8901 14.264C55.8901 13.3493 55.6194 12.6307 55.0781 12.108C54.5554 11.5853 53.8834 11.324 53.0621 11.324C52.1101 11.324 51.2421 11.6693 50.4581 12.36C49.6741 13.032 49.1794 13.9653 48.9741 15.16C48.9181 15.496 48.8901 15.804 48.8901 16.084C48.8901 16.9987 49.1514 17.7267 49.6741 18.268C50.2154 18.7907 50.8874 19.052 51.6901 19.052C52.6421 19.052 53.5101 18.7067 54.2941 18.016C55.0781 17.3253 55.5821 16.3827 55.8061 15.188ZM73.914 2.28L70.246 23H65.458L69.126 2.28H73.914ZM81.9758 5.752C81.2291 5.752 80.6318 5.556 80.1838 5.164C79.7545 4.75333 79.5398 4.24 79.5398 3.624C79.5398 2.784 79.8665 2.06533 80.5198 1.468C81.1731 0.870665 81.9665 0.571998 82.8998 0.571998C83.6465 0.571998 84.2345 0.777332 84.6638 1.188C85.0931 1.58 85.3078 2.09333 85.3078 2.728C85.3078 3.54933 84.9811 4.25867 84.3278 4.856C83.6745 5.45333 82.8905 5.752 81.9758 5.752ZM84.0478 7.376L81.3038 23H76.5158L79.2598 7.376H84.0478ZM94.0696 17.624C94.051 17.7173 94.0416 17.8387 94.0416 17.988C94.0416 18.324 94.135 18.5667 94.3216 18.716C94.527 18.8653 94.8536 18.94 95.3016 18.94H97.0096L96.2816 23H93.8456C90.7096 23 89.1416 21.684 89.1416 19.052C89.1416 18.66 89.1883 18.1653 89.2816 17.568L90.4016 11.352H88.4976L89.1976 7.376H91.1016L91.7736 3.568H96.5616L95.8896 7.376H99.0256L98.3256 11.352H95.1896L94.0696 17.624ZM108.077 7.376L109.981 17.148L115.301 7.376H120.481L106.621 30.42H101.469L106.453 22.468L102.757 7.376H108.077Z" fill="#101012"/>
</svg>
